{
    "asset" : {
        "generator" : "Khronos glTF Blender I/O v1.6.16",
        "version" : "2.0"
    },
    "extensionsUsed" : [
        "KHR_texture_transform"
    ],
    "extensionsRequired" : [
        "KHR_texture_transform"
    ],
    "scene" : 0,
    "scenes" : [
        {
            "name" : "Scene",
            "nodes" : [
                0
            ]
        }
    ],
    "nodes" : [
        {
            "mesh" : 0,
            "name" : "Plane.001",
            "scale" : [
                8.989802360534668,
                8.989802360534668,
                8.989802360534668
            ]
        }
    ],
    "materials" : [
        {
            "doubleSided" : true,
            "name" : "dirt_ground",
            "normalTexture" : {
                "extensions" : {
                    "KHR_texture_transform" : {
                        "offset" : [
                            0,
                            -2.5
                        ],
                        "scale" : [
                            3.5,
                            3.5
                        ]
                    }
                },
                "index" : 0
            },
            "pbrMetallicRoughness" : {
                "baseColorTexture" : {
                    "extensions" : {
                        "KHR_texture_transform" : {
                            "offset" : [
                                0,
                                -2.5
                            ],
                            "scale" : [
                                3.5,
                                3.5
                            ]
                        }
                    },
                    "index" : 1
                },
                "metallicFactor" : 0,
                "roughnessFactor" : 0.5
            }
        }
    ],
    "meshes" : [
        {
            "name" : "Plane.001",
            "primitives" : [
                {
                    "attributes" : {
                        "POSITION" : 0,
                        "NORMAL" : 1,
                        "TEXCOORD_0" : 2,
                        "COLOR_0" : 3
                    },
                    "indices" : 4,
                    "material" : 0
                }
            ]
        }
    ],
    "textures" : [
        {
            "sampler" : 0,
            "source" : 0
        },
        {
            "sampler" : 0,
            "source" : 1
        }
    ],
    "images" : [
        {
            "bufferView" : 5,
            "mimeType" : "image/jpeg",
            "name" : "1K-ground_dirt_3-normal"
        },
        {
            "bufferView" : 6,
            "mimeType" : "image/jpeg",
            "name" : "1K-ground_dirt_3-diffuse"
        }
    ],
    "accessors" : [
        {
            "bufferView" : 0,
            "componentType" : 5126,
            "count" : 2113,
            "max" : [
                1,
                0.007477354723960161,
                1
            ],
            "min" : [
                -1,
                -0.005705549381673336,
                -1
            ],
            "type" : "VEC3"
        },
        {
            "bufferView" : 1,
            "componentType" : 5126,
            "count" : 2113,
            "type" : "VEC3"
        },
        {
            "bufferView" : 2,
            "componentType" : 5126,
            "count" : 2113,
            "type" : "VEC2"
        },
        {
            "bufferView" : 3,
            "componentType" : 5123,
            "count" : 2113,
            "normalized" : true,
            "type" : "VEC4"
        },
        {
            "bufferView" : 4,
            "componentType" : 5123,
            "count" : 12288,
            "type" : "SCALAR"
        }
    ],
    "bufferViews" : [
        {
            "buffer" : 0,
            "byteLength" : 25356,
            "byteOffset" : 0
        },
        {
            "buffer" : 0,
            "byteLength" : 25356,
            "byteOffset" : 25356
        },
        {
            "buffer" : 0,
            "byteLength" : 16904,
            "byteOffset" : 50712
        },
        {
            "buffer" : 0,
            "byteLength" : 16904,
            "byteOffset" : 67616
        },
        {
            "buffer" : 0,
            "byteLength" : 24576,
            "byteOffset" : 84520
        },
        {
            "buffer" : 0,
            "byteLength" : 1409946,
            "byteOffset" : 109096
        },
        {
            "buffer" : 0,
            "byteLength" : 1075137,
            "byteOffset" : 1519044
        }
    ],
    "samplers" : [
        {
            "magFilter" : 9729,
            "minFilter" : 9987
        }
    ],
    "buffers" : [
        {
            "byteLength" : 2594184,
            "uri" : "data:application/octet-stream;base64,"
        }
    ]
}
