{
    "asset" : {
        "generator" : "Khronos glTF Blender I/O v1.6.16",
        "version" : "2.0"
    },
    "scene" : 0,
    "scenes" : [
        {
            "name" : "Scene",
            "nodes" : [
                8
            ]
        }
    ],
    "nodes" : [
        {
            "mesh" : 0,
            "name" : "PenyanggahText",
            "scale" : [
                0.048814646899700165,
                1,
                0.04881463572382927
            ],
            "translation" : [
                4.590009689331055,
                1.2630009651184082,
                -2.025552749633789
            ]
        },
        {
            "mesh" : 1,
            "name" : "TextA",
            "rotation" : [
                0.5,
                -0.5,
                0.5000000596046448,
                0.4999999403953552
            ],
            "scale" : [
                2.5342397689819336,
                2.534240484237671,
                2.5342397689819336
            ],
            "translation" : [
                4.5188703536987305,
                1.8608770370483398,
                -3.9514079093933105
            ]
        },
        {
            "mesh" : 2,
            "name" : "TextCimahi",
            "rotation" : [
                0.5,
                -0.5,
                0.5,
                0.5
            ],
            "scale" : [
                1.730839490890503,
                1.7308398485183716,
                1.730839490890503
            ],
            "translation" : [
                4.5188703536987305,
                0.4705958366394043,
                1.2620450258255005
            ]
        },
        {
            "mesh" : 3,
            "name" : "TextIsata",
            "rotation" : [
                0.5,
                -0.5,
                0.5000000596046448,
                0.4999999403953552
            ],
            "scale" : [
                1.1461222171783447,
                1.1461224555969238,
                1.1461222171783447
            ],
            "translation" : [
                4.5188703536987305,
                1.8608770370483398,
                2.4401626586914062
            ]
        },
        {
            "mesh" : 4,
            "name" : "TextLam",
            "rotation" : [
                0.5,
                -0.5,
                0.5000000596046448,
                0.4999999403953552
            ],
            "scale" : [
                1.1461222171783447,
                1.1461224555969238,
                1.1461222171783447
            ],
            "translation" : [
                4.5188703536987305,
                1.8608770370483398,
                -2.2511425018310547
            ]
        },
        {
            "mesh" : 5,
            "name" : "TextW",
            "rotation" : [
                0.5,
                -0.5,
                0.5000000596046448,
                0.4999999403953552
            ],
            "scale" : [
                2.5342397689819336,
                2.534240484237671,
                2.5342397689819336
            ],
            "translation" : [
                4.5188703536987305,
                1.8608770370483398,
                0.0597916841506958
            ]
        },
        {
            "children" : [
                0,
                1,
                2,
                3,
                4,
                5
            ],
            "mesh" : 6,
            "name" : "atap",
            "translation" : [
                -5.373649597167969,
                4,
                0
            ]
        },
        {
            "children" : [
                6
            ],
            "mesh" : 7,
            "name" : "penyanggahAtap",
            "rotation" : [
                -0.7071080803871155,
                0,
                0,
                0.7071055769920349
            ],
            "translation" : [
                5.3736467361450195,
                0,
                0
            ]
        },
        {
            "children" : [
                7
            ],
            "mesh" : 8,
            "name" : "Taman",
            "rotation" : [
                0.7071080803871155,
                0,
                0,
                0.7071055173873901
            ],
            "translation" : [
                3.626350164413452,
                0,
                0
            ]
        }
    ],
    "materials" : [
        {
            "doubleSided" : true,
            "name" : "TextColor",
            "pbrMetallicRoughness" : {
                "baseColorFactor" : [
                    0.8000000715255737,
                    0.07428833842277527,
                    0.07428833842277527,
                    1
                ],
                "metallicFactor" : 0,
                "roughnessFactor" : 0.5
            }
        },
        {
            "doubleSided" : true,
            "name" : "TextColorCimahi",
            "pbrMetallicRoughness" : {
                "baseColorFactor" : [
                    0.08334586769342422,
                    0.0963197648525238,
                    0.8000000715255737,
                    1
                ],
                "metallicFactor" : 0,
                "roughnessFactor" : 0.5
            }
        },
        {
            "doubleSided" : true,
            "name" : "Atap",
            "pbrMetallicRoughness" : {
                "baseColorFactor" : [
                    0.03106340952217579,
                    0.03106340952217579,
                    0.03106340952217579,
                    1
                ],
                "metallicFactor" : 0,
                "roughnessFactor" : 0.5
            }
        },
        {
            "doubleSided" : true,
            "name" : "DasarBesi",
            "pbrMetallicRoughness" : {
                "baseColorFactor" : [
                    0.08067594468593597,
                    0.8000000715255737,
                    0.024198710918426514,
                    1
                ],
                "metallicFactor" : 0,
                "roughnessFactor" : 0.5
            }
        },
        {
            "doubleSided" : true,
            "name" : "Texture",
            "pbrMetallicRoughness" : {
                "baseColorTexture" : {
                    "index" : 0
                },
                "metallicFactor" : 0,
                "roughnessFactor" : 0.5
            }
        }
    ],
    "meshes" : [
        {
            "name" : "Cube.004",
            "primitives" : [
                {
                    "attributes" : {
                        "POSITION" : 0,
                        "NORMAL" : 1
                    },
                    "indices" : 2
                }
            ]
        },
        {
            "name" : "Text",
            "primitives" : [
                {
                    "attributes" : {
                        "POSITION" : 3,
                        "NORMAL" : 4,
                        "TEXCOORD_0" : 5
                    },
                    "indices" : 6,
                    "material" : 0
                }
            ]
        },
        {
            "name" : "Text.004",
            "primitives" : [
                {
                    "attributes" : {
                        "POSITION" : 7,
                        "NORMAL" : 8,
                        "TEXCOORD_0" : 9
                    },
                    "indices" : 10,
                    "material" : 1
                }
            ]
        },
        {
            "name" : "Text.002",
            "primitives" : [
                {
                    "attributes" : {
                        "POSITION" : 11,
                        "NORMAL" : 12,
                        "TEXCOORD_0" : 13
                    },
                    "indices" : 14,
                    "material" : 0
                }
            ]
        },
        {
            "name" : "Text.001",
            "primitives" : [
                {
                    "attributes" : {
                        "POSITION" : 15,
                        "NORMAL" : 16,
                        "TEXCOORD_0" : 17
                    },
                    "indices" : 18,
                    "material" : 0
                }
            ]
        },
        {
            "name" : "Text.003",
            "primitives" : [
                {
                    "attributes" : {
                        "POSITION" : 19,
                        "NORMAL" : 20,
                        "TEXCOORD_0" : 21
                    },
                    "indices" : 22,
                    "material" : 0
                }
            ]
        },
        {
            "name" : "Cylinder.004",
            "primitives" : [
                {
                    "attributes" : {
                        "POSITION" : 23,
                        "NORMAL" : 24
                    },
                    "indices" : 25,
                    "material" : 2
                }
            ]
        },
        {
            "name" : "Cylinder.001",
            "primitives" : [
                {
                    "attributes" : {
                        "POSITION" : 26,
                        "NORMAL" : 27
                    },
                    "indices" : 28,
                    "material" : 3
                }
            ]
        },
        {
            "name" : "Cylinder.002",
            "primitives" : [
                {
                    "attributes" : {
                        "POSITION" : 29,
                        "NORMAL" : 30,
                        "TEXCOORD_0" : 31
                    },
                    "indices" : 32,
                    "material" : 4
                }
            ]
        }
    ],
    "textures" : [
        {
            "sampler" : 0,
            "source" : 0
        }
    ],
    "images" : [
        {
            "bufferView" : 33,
            "mimeType" : "image/png",
            "name" : "Texture_color"
        }
    ],
    "accessors" : [
        {
            "bufferView" : 0,
            "componentType" : 5126,
            "count" : 96,
            "max" : [
                1,
                1,
                120.31543731689453
            ],
            "min" : [
                -1,
                -1,
                -35.0743522644043
            ],
            "type" : "VEC3"
        },
        {
            "bufferView" : 1,
            "componentType" : 5126,
            "count" : 96,
            "type" : "VEC3"
        },
        {
            "bufferView" : 2,
            "componentType" : 5123,
            "count" : 144,
            "type" : "SCALAR"
        },
        {
            "bufferView" : 3,
            "componentType" : 5126,
            "count" : 66,
            "max" : [
                0.6670000553131104,
                0.04500000178813934,
                0
            ],
            "min" : [
                0,
                -0.04500000178813934,
                -0.6860000491142273
            ],
            "type" : "VEC3"
        },
        {
            "bufferView" : 4,
            "componentType" : 5126,
            "count" : 66,
            "type" : "VEC3"
        },
        {
            "bufferView" : 5,
            "componentType" : 5126,
            "count" : 66,
            "type" : "VEC2"
        },
        {
            "bufferView" : 6,
            "componentType" : 5123,
            "count" : 132,
            "type" : "SCALAR"
        },
        {
            "bufferView" : 7,
            "componentType" : 5126,
            "count" : 11620,
            "max" : [
                2.093557596206665,
                0.04500000178813934,
                0.007796471007168293
            ],
            "min" : [
                0.054985638707876205,
                -0.04500000178813934,
                -0.5806319117546082
            ],
            "type" : "VEC3"
        },
        {
            "bufferView" : 8,
            "componentType" : 5126,
            "count" : 11620,
            "type" : "VEC3"
        },
        {
            "bufferView" : 9,
            "componentType" : 5126,
            "count" : 11620,
            "type" : "VEC2"
        },
        {
            "bufferView" : 10,
            "componentType" : 5123,
            "count" : 21252,
            "type" : "SCALAR"
        },
        {
            "bufferView" : 11,
            "componentType" : 5126,
            "count" : 3856,
            "max" : [
                1.7750000953674316,
                0.04500000178813934,
                0.009000000543892384
            ],
            "min" : [
                0.05700000375509262,
                -0.04500000178813934,
                -0.6380000114440918
            ],
            "type" : "VEC3"
        },
        {
            "bufferView" : 12,
            "componentType" : 5126,
            "count" : 3856,
            "type" : "VEC3"
        },
        {
            "bufferView" : 13,
            "componentType" : 5126,
            "count" : 3856,
            "type" : "VEC2"
        },
        {
            "bufferView" : 14,
            "componentType" : 5123,
            "count" : 7056,
            "type" : "SCALAR"
        },
        {
            "bufferView" : 15,
            "componentType" : 5126,
            "count" : 182,
            "max" : [
                1.8660001754760742,
                0.04500000178813934,
                0
            ],
            "min" : [
                0.07400000095367432,
                -0.04500000178813934,
                -0.6860000491142273
            ],
            "type" : "VEC3"
        },
        {
            "bufferView" : 16,
            "componentType" : 5126,
            "count" : 182,
            "type" : "VEC3"
        },
        {
            "bufferView" : 17,
            "componentType" : 5126,
            "count" : 182,
            "type" : "VEC2"
        },
        {
            "bufferView" : 18,
            "componentType" : 5123,
            "count" : 360,
            "type" : "SCALAR"
        },
        {
            "bufferView" : 19,
            "componentType" : 5126,
            "count" : 72,
            "max" : [
                1.0410000085830688,
                0.04500000178813934,
                0.006000000052154064
            ],
            "min" : [
                0,
                -0.04500000178813934,
                -0.6820000410079956
            ],
            "type" : "VEC3"
        },
        {
            "bufferView" : 20,
            "componentType" : 5126,
            "count" : 72,
            "type" : "VEC3"
        },
        {
            "bufferView" : 21,
            "componentType" : 5126,
            "count" : 72,
            "type" : "VEC2"
        },
        {
            "bufferView" : 22,
            "componentType" : 5123,
            "count" : 144,
            "type" : "SCALAR"
        },
        {
            "bufferView" : 23,
            "componentType" : 5126,
            "count" : 128,
            "max" : [
                6.365963935852051,
                0.26300108432769775,
                7.838834762573242
            ],
            "min" : [
                -2.2905831336975098,
                0.08630117774009705,
                -7.838834762573242
            ],
            "type" : "VEC3"
        },
        {
            "bufferView" : 24,
            "componentType" : 5126,
            "count" : 128,
            "type" : "VEC3"
        },
        {
            "bufferView" : 25,
            "componentType" : 5123,
            "count" : 204,
            "type" : "SCALAR"
        },
        {
            "bufferView" : 26,
            "componentType" : 5126,
            "count" : 1056,
            "max" : [
                -0.19106459617614746,
                4.120838642120361,
                7.555420875549316
            ],
            "min" : [
                -7.669683933258057,
                0,
                1.1239382028579712
            ],
            "type" : "VEC3"
        },
        {
            "bufferView" : 27,
            "componentType" : 5126,
            "count" : 1056,
            "type" : "VEC3"
        },
        {
            "bufferView" : 28,
            "componentType" : 5123,
            "count" : 1908,
            "type" : "SCALAR"
        },
        {
            "bufferView" : 29,
            "componentType" : 5126,
            "count" : 1465,
            "max" : [
                6.8180389404296875,
                8.328023910522461,
                -0.014909835532307625
            ],
            "min" : [
                -12.814570426940918,
                -8.328027725219727,
                -2.3616652488708496
            ],
            "type" : "VEC3"
        },
        {
            "bufferView" : 30,
            "componentType" : 5126,
            "count" : 1465,
            "type" : "VEC3"
        },
        {
            "bufferView" : 31,
            "componentType" : 5126,
            "count" : 1465,
            "type" : "VEC2"
        },
        {
            "bufferView" : 32,
            "componentType" : 5123,
            "count" : 2904,
            "type" : "SCALAR"
        }
    ],
    "bufferViews" : [
        {
            "buffer" : 0,
            "byteLength" : 1152,
            "byteOffset" : 0
        },
        {
            "buffer" : 0,
            "byteLength" : 1152,
            "byteOffset" : 1152
        },
        {
            "buffer" : 0,
            "byteLength" : 288,
            "byteOffset" : 2304
        },
        {
            "buffer" : 0,
            "byteLength" : 792,
            "byteOffset" : 2592
        },
        {
            "buffer" : 0,
            "byteLength" : 792,
            "byteOffset" : 3384
        },
        {
            "buffer" : 0,
            "byteLength" : 528,
            "byteOffset" : 4176
        },
        {
            "buffer" : 0,
            "byteLength" : 264,
            "byteOffset" : 4704
        },
        {
            "buffer" : 0,
            "byteLength" : 139440,
            "byteOffset" : 4968
        },
        {
            "buffer" : 0,
            "byteLength" : 139440,
            "byteOffset" : 144408
        },
        {
            "buffer" : 0,
            "byteLength" : 92960,
            "byteOffset" : 283848
        },
        {
            "buffer" : 0,
            "byteLength" : 42504,
            "byteOffset" : 376808
        },
        {
            "buffer" : 0,
            "byteLength" : 46272,
            "byteOffset" : 419312
        },
        {
            "buffer" : 0,
            "byteLength" : 46272,
            "byteOffset" : 465584
        },
        {
            "buffer" : 0,
            "byteLength" : 30848,
            "byteOffset" : 511856
        },
        {
            "buffer" : 0,
            "byteLength" : 14112,
            "byteOffset" : 542704
        },
        {
            "buffer" : 0,
            "byteLength" : 2184,
            "byteOffset" : 556816
        },
        {
            "buffer" : 0,
            "byteLength" : 2184,
            "byteOffset" : 559000
        },
        {
            "buffer" : 0,
            "byteLength" : 1456,
            "byteOffset" : 561184
        },
        {
            "buffer" : 0,
            "byteLength" : 720,
            "byteOffset" : 562640
        },
        {
            "buffer" : 0,
            "byteLength" : 864,
            "byteOffset" : 563360
        },
        {
            "buffer" : 0,
            "byteLength" : 864,
            "byteOffset" : 564224
        },
        {
            "buffer" : 0,
            "byteLength" : 576,
            "byteOffset" : 565088
        },
        {
            "buffer" : 0,
            "byteLength" : 288,
            "byteOffset" : 565664
        },
        {
            "buffer" : 0,
            "byteLength" : 1536,
            "byteOffset" : 565952
        },
        {
            "buffer" : 0,
            "byteLength" : 1536,
            "byteOffset" : 567488
        },
        {
            "buffer" : 0,
            "byteLength" : 408,
            "byteOffset" : 569024
        },
        {
            "buffer" : 0,
            "byteLength" : 12672,
            "byteOffset" : 569432
        },
        {
            "buffer" : 0,
            "byteLength" : 12672,
            "byteOffset" : 582104
        },
        {
            "buffer" : 0,
            "byteLength" : 3816,
            "byteOffset" : 594776
        },
        {
            "buffer" : 0,
            "byteLength" : 17580,
            "byteOffset" : 598592
        },
        {
            "buffer" : 0,
            "byteLength" : 17580,
            "byteOffset" : 616172
        },
        {
            "buffer" : 0,
            "byteLength" : 11720,
            "byteOffset" : 633752
        },
        {
            "buffer" : 0,
            "byteLength" : 5808,
            "byteOffset" : 645472
        },
        {
            "buffer" : 0,
            "byteLength" : 1169306,
            "byteOffset" : 651280
        }
    ],
    "samplers" : [
        {
            "magFilter" : 9729,
            "minFilter" : 9987
        }
    ],
    "buffers" : [
        {
            "byteLength" : 1820588,
            "uri" : "data:application/octet-stream;base64,"
        }
    ]
}
